<svg xmlns="http://www.w3.org/2000/svg" xmlns:xlink="http://www.w3.org/1999/xlink" width="500" zoomAndPan="magnify" viewBox="0 0 375 374.999991" height="500" preserveAspectRatio="xMidYMid meet" version="1.0"><path fill="#db202c" d="M 269.621094 142.054688 C 272.5625 142.054688 275.507812 142.054688 278.542969 142.054688 C 279.523438 150.351562 280.507812 158.652344 281.519531 167.199219 C 282.5 158.902344 283.480469 150.605469 284.492188 142.054688 C 287.191406 142.054688 289.890625 142.054688 292.671875 142.054688 C 293.691406 144.078125 293.726562 145.929688 293.949219 148.183594 C 294.046875 149.109375 294.140625 150.035156 294.238281 150.988281 C 294.386719 152.464844 294.53125 153.941406 294.679688 155.421875 C 294.820312 156.84375 294.964844 158.269531 295.113281 159.691406 C 295.195312 160.546875 295.28125 161.402344 295.367188 162.28125 C 295.4375 164.179688 295.4375 164.179688 296.390625 164.980469 C 296.453125 164.390625 296.515625 163.804688 296.582031 163.195312 C 296.871094 160.523438 297.164062 157.851562 297.460938 155.183594 C 297.558594 154.253906 297.660156 153.328125 297.761719 152.371094 C 297.859375 151.480469 297.960938 150.589844 298.058594 149.671875 C 298.195312 148.4375 298.195312 148.4375 298.332031 147.183594 C 298.621094 145.011719 298.621094 145.011719 299.363281 142.054688 C 301.820312 142.054688 304.273438 142.054688 306.800781 142.054688 C 306.355469 150.441406 305.492188 158.753906 304.496094 167.09375 C 304.242188 169.210938 304 171.332031 303.753906 173.449219 C 303.59375 174.804688 303.433594 176.160156 303.273438 177.515625 C 303.199219 178.144531 303.128906 178.777344 303.054688 179.425781 C 302.984375 180.011719 302.910156 180.597656 302.835938 181.199219 C 302.777344 181.710938 302.714844 182.222656 302.652344 182.75 C 302.339844 184.210938 302.339844 184.210938 300.851562 187.167969 C 295.699219 186.804688 295.699219 186.804688 290.441406 186.429688 C 290.292969 185.160156 290.292969 185.160156 290.140625 183.867188 C 290.007812 182.765625 289.875 181.660156 289.742188 180.558594 C 289.679688 180 289.613281 179.441406 289.546875 178.867188 C 289.441406 176.132812 289.441406 176.132812 288.210938 173.855469 C 287.71875 177.761719 287.230469 181.667969 286.722656 185.691406 C 284.898438 185.707031 283.074219 185.71875 281.191406 185.734375 C 280.328125 185.746094 280.328125 185.746094 279.449219 185.757812 C 278.15625 185.761719 276.863281 185.726562 275.570312 185.691406 C 274.328125 184.453125 274.476562 182.863281 274.261719 181.167969 C 274.160156 180.359375 274.054688 179.554688 273.945312 178.722656 C 273.78125 177.402344 273.78125 177.402344 273.613281 176.058594 C 273.441406 174.714844 273.441406 174.714844 273.265625 173.339844 C 273.023438 171.441406 272.785156 169.539062 272.542969 167.636719 C 272.179688 164.722656 271.804688 161.804688 271.433594 158.890625 C 271.199219 157.046875 270.964844 155.207031 270.730469 153.363281 C 270.566406 152.046875 270.566406 152.046875 270.394531 150.707031 C 270.292969 149.894531 270.191406 149.082031 270.085938 148.246094 C 269.996094 147.53125 269.90625 146.816406 269.8125 146.078125 C 269.621094 144.273438 269.621094 144.273438 269.621094 142.054688 Z M 269.621094 142.054688 " fill-opacity="1" fill-rule="nonzero"/><path fill="#db202c" d="M 102.304688 142.054688 C 105.738281 142.054688 109.175781 142.054688 112.714844 142.054688 C 114.675781 148.15625 116.640625 154.257812 118.664062 160.542969 C 118.910156 154.441406 119.152344 148.339844 119.40625 142.054688 C 121.859375 142.054688 124.316406 142.054688 126.84375 142.054688 C 126.84375 155.964844 126.84375 169.878906 126.84375 184.210938 C 124.796875 184.890625 123.601562 185.03125 121.5 184.996094 C 120.5625 184.980469 119.628906 184.964844 118.664062 184.949219 C 116.558594 180.40625 115.121094 175.734375 113.691406 170.945312 C 112.878906 168.246094 112.0625 165.542969 111.226562 162.761719 C 110.980469 170.085938 110.734375 177.40625 110.484375 184.949219 C 106.433594 185.316406 106.433594 185.316406 102.304688 185.691406 C 102.304688 171.289062 102.304688 156.890625 102.304688 142.054688 Z M 102.304688 142.054688 " fill-opacity="1" fill-rule="nonzero"/><path fill="#db202c" d="M 334.316406 142.054688 C 337.261719 142.054688 340.203125 142.054688 343.238281 142.054688 C 343.484375 147.179688 343.730469 152.304688 343.980469 157.585938 C 346.4375 152.460938 348.890625 147.335938 351.417969 142.054688 C 354.363281 142.054688 357.308594 142.054688 360.34375 142.054688 C 359.527344 145.011719 358.324219 147.554688 356.84375 150.226562 C 356.46875 150.910156 356.09375 151.597656 355.707031 152.304688 C 354.925781 153.726562 354.128906 155.140625 353.3125 156.546875 C 351.464844 160 350.191406 162.476562 351.308594 166.355469 C 351.816406 167.632812 352.351562 168.902344 352.90625 170.160156 C 353.523438 171.78125 354.136719 173.410156 354.75 175.035156 C 355.417969 176.738281 356.089844 178.441406 356.761719 180.144531 C 357.441406 181.859375 358.121094 183.578125 358.792969 185.296875 C 359.089844 186.046875 359.386719 186.796875 359.695312 187.570312 C 360.34375 189.386719 360.34375 189.386719 360.34375 190.867188 C 359.027344 190.96875 357.710938 191.039062 356.390625 191.097656 C 355.660156 191.140625 354.925781 191.183594 354.167969 191.226562 C 352.164062 190.867188 352.164062 190.867188 350.953125 189.457031 C 349.554688 186.324219 348.347656 183.140625 347.1875 179.910156 C 346.949219 179.257812 346.710938 178.605469 346.46875 177.929688 C 345.882812 176.328125 345.304688 174.722656 344.726562 173.117188 C 343.523438 174.3125 343.816406 175.671875 343.746094 177.328125 C 343.714844 178.023438 343.683594 178.722656 343.652344 179.441406 C 343.625 180.175781 343.59375 180.910156 343.5625 181.667969 C 343.53125 182.40625 343.5 183.144531 343.464844 183.902344 C 343.386719 185.730469 343.3125 187.558594 343.238281 189.386719 C 341.890625 189.40625 340.542969 189.421875 339.195312 189.433594 C 338.445312 189.441406 337.695312 189.453125 336.921875 189.460938 C 335.058594 189.386719 335.058594 189.386719 334.316406 188.648438 C 334.246094 187.195312 334.226562 185.742188 334.230469 184.289062 C 334.230469 183.355469 334.230469 182.421875 334.230469 181.460938 C 334.234375 180.433594 334.238281 179.410156 334.242188 178.382812 C 334.242188 177.339844 334.246094 176.296875 334.246094 175.253906 C 334.25 172.5 334.257812 169.75 334.265625 167 C 334.273438 164.191406 334.273438 161.386719 334.277344 158.582031 C 334.285156 153.070312 334.300781 147.5625 334.316406 142.054688 Z M 334.316406 142.054688 " fill-opacity="1" fill-rule="nonzero"/><path fill="#db202c" d="M 28.683594 142.054688 C 32.609375 142.054688 36.535156 142.054688 40.582031 142.054688 C 41.824219 146.714844 42.71875 151.378906 43.515625 156.132812 C 43.644531 156.898438 43.777344 157.667969 43.910156 158.457031 C 44.183594 160.070312 44.453125 161.6875 44.722656 163.300781 C 45.136719 165.761719 45.554688 168.222656 45.976562 170.6875 C 46.242188 172.261719 46.503906 173.832031 46.769531 175.40625 C 46.894531 176.140625 47.019531 176.871094 47.148438 177.625 C 47.765625 181.355469 48.160156 184.867188 48.019531 188.648438 C 43.96875 189.015625 43.96875 189.015625 39.839844 189.386719 C 38.351562 183.007812 38.351562 183.007812 38.351562 180.511719 C 37.246094 180.878906 37.246094 180.878906 36.121094 181.253906 C 35.082031 181.300781 34.042969 181.316406 33.007812 181.296875 C 32.070312 181.285156 31.136719 181.269531 30.171875 181.253906 C 29.925781 184.179688 29.679688 187.109375 29.425781 190.128906 C 25.378906 190.492188 25.378906 190.492188 21.246094 190.867188 C 22.09375 178.421875 24.023438 166.117188 26.453125 153.886719 C 26.875 151.671875 27.292969 149.449219 27.707031 147.230469 C 28.03125 145.523438 28.351562 143.816406 28.683594 142.054688 Z M 33.890625 155.367188 C 33.511719 157.753906 33.144531 160.144531 32.773438 162.53125 C 32.667969 163.207031 32.5625 163.878906 32.453125 164.574219 C 32.351562 165.230469 32.25 165.886719 32.148438 166.5625 C 32.054688 167.164062 31.960938 167.761719 31.863281 168.382812 C 31.652344 170.222656 31.625 172.003906 31.660156 173.855469 C 34.234375 173.492188 34.234375 173.492188 36.863281 173.117188 C 36.5 167.101562 35.859375 161.269531 34.632812 155.367188 C 34.386719 155.367188 34.140625 155.367188 33.890625 155.367188 Z M 33.890625 155.367188 " fill-opacity="1" fill-rule="nonzero"/><path fill="#db202c" d="M 93.984375 142.933594 C 96.414062 144.9375 98.285156 147.070312 98.863281 150.25 C 98.976562 152.046875 98.996094 153.820312 98.980469 155.621094 C 98.984375 156.277344 98.984375 156.933594 98.988281 157.609375 C 98.992188 158.992188 98.984375 160.375 98.972656 161.757812 C 98.957031 163.867188 98.972656 165.972656 98.992188 168.082031 C 98.988281 169.429688 98.984375 170.777344 98.980469 172.125 C 98.984375 172.75 98.992188 173.375 99 174.023438 C 98.933594 178.015625 98.261719 180.289062 95.609375 183.472656 C 91.945312 186.675781 88.386719 186.691406 83.675781 186.628906 C 80.640625 186.351562 79.152344 185.644531 77.019531 183.472656 C 75.132812 179.285156 74.453125 175.890625 74.492188 171.335938 C 74.492188 170.765625 74.488281 170.195312 74.484375 169.605469 C 74.484375 168.410156 74.488281 167.214844 74.5 166.015625 C 74.511719 164.199219 74.5 162.378906 74.484375 160.558594 C 74.484375 159.390625 74.488281 158.222656 74.492188 157.050781 C 74.488281 156.515625 74.484375 155.976562 74.480469 155.421875 C 74.539062 150.941406 75.59375 147.628906 78.320312 144.042969 C 83.03125 140.527344 88.753906 140.738281 93.984375 142.933594 Z M 83.710938 150.191406 C 83.503906 152.269531 83.4375 154.1875 83.46875 156.269531 C 83.46875 156.871094 83.472656 157.472656 83.472656 158.09375 C 83.476562 159.367188 83.488281 160.636719 83.503906 161.910156 C 83.527344 163.863281 83.535156 165.816406 83.539062 167.769531 C 83.546875 169.003906 83.554688 170.242188 83.5625 171.476562 C 83.566406 172.0625 83.566406 172.648438 83.570312 173.253906 C 83.542969 176.238281 83.542969 176.238281 84.457031 179.035156 C 85.929688 179.035156 87.402344 179.035156 88.917969 179.035156 C 90.683594 176.304688 90.609375 173.660156 90.578125 170.527344 C 90.578125 169.992188 90.574219 169.460938 90.574219 168.914062 C 90.574219 167.789062 90.566406 166.667969 90.558594 165.546875 C 90.542969 163.828125 90.542969 162.113281 90.542969 160.394531 C 90.539062 159.304688 90.535156 158.210938 90.53125 157.121094 C 90.527344 156.609375 90.527344 156.09375 90.527344 155.566406 C 90.503906 153.324219 90.378906 151.59375 89.660156 149.449219 C 86.554688 148.570312 86.554688 148.570312 83.710938 150.191406 Z M 83.710938 150.191406 " fill-opacity="1" fill-rule="nonzero"/><path fill="#db202c" d="M 194.511719 142.054688 C 210.871094 142.054688 210.871094 142.054688 215.335938 144.273438 C 218.488281 147.808594 218.742188 150.660156 218.679688 155.160156 C 218.679688 155.769531 218.679688 156.378906 218.679688 157.007812 C 218.679688 158.289062 218.671875 159.570312 218.65625 160.851562 C 218.632812 162.804688 218.640625 164.761719 218.652344 166.714844 C 218.644531 167.964844 218.640625 169.214844 218.632812 170.460938 C 218.632812 171.042969 218.636719 171.625 218.636719 172.226562 C 218.566406 176.375 217.636719 178.703125 214.964844 181.808594 C 209.792969 186.09375 198.621094 183.472656 194.511719 183.472656 C 194.511719 169.804688 194.511719 156.136719 194.511719 142.054688 Z M 203.4375 148.710938 C 203.4375 157.984375 203.4375 167.257812 203.4375 176.816406 C 207.511719 177.144531 207.511719 177.144531 209.386719 176.074219 C 210.246094 170.820312 210.242188 165.582031 210.222656 160.265625 C 210.226562 159.46875 210.226562 158.671875 210.230469 157.847656 C 210.230469 156.703125 210.230469 156.703125 210.226562 155.535156 C 210.226562 154.84375 210.226562 154.15625 210.226562 153.445312 C 210.203125 151.5625 210.203125 151.5625 209.386719 149.449219 C 207.421875 149.207031 205.460938 148.960938 203.4375 148.710938 Z M 203.4375 148.710938 " fill-opacity="1" fill-rule="nonzero"/><path fill="#db202c" d="M 141.714844 142.054688 C 159.097656 142.054688 159.097656 142.054688 163.140625 145.382812 C 165.082031 147.816406 164.914062 150.453125 164.953125 153.425781 C 164.972656 154.253906 164.992188 155.085938 165.011719 155.9375 C 164.742188 158.5625 163.964844 159.847656 162.539062 162.023438 C 162.320312 164.25 162.320312 164.25 163.621094 165.730469 C 165.335938 169.039062 165.191406 172.265625 165.277344 175.9375 C 165.316406 177.023438 165.316406 177.023438 165.355469 178.132812 C 165.417969 179.910156 165.46875 181.691406 165.511719 183.472656 C 164.304688 183.617188 163.09375 183.753906 161.886719 183.886719 C 160.878906 184.003906 160.878906 184.003906 159.847656 184.121094 C 158.074219 184.210938 158.074219 184.210938 156.589844 183.472656 C 156.304688 181.851562 156.304688 181.851562 156.167969 179.773438 C 156.117188 179.042969 156.0625 178.316406 156.007812 177.5625 C 155.953125 176.828125 155.898438 176.09375 155.84375 175.335938 C 155.613281 173.113281 155.355469 170.898438 155.101562 168.679688 C 153.382812 168.191406 151.664062 167.703125 149.894531 167.199219 C 149.894531 172.8125 149.894531 178.425781 149.894531 184.210938 C 147.195312 184.210938 144.496094 184.210938 141.714844 184.210938 C 141.714844 170.300781 141.714844 156.386719 141.714844 142.054688 Z M 149.894531 148.710938 C 149.894531 152.617188 149.894531 156.519531 149.894531 160.542969 C 154.65625 160.394531 154.65625 160.394531 155.84375 159.066406 C 155.957031 157.605469 156.007812 156.136719 156.03125 154.671875 C 156.050781 153.875 156.070312 153.074219 156.089844 152.25 C 156.007812 151.570312 155.925781 150.890625 155.84375 150.191406 C 153.542969 148.367188 153.542969 148.367188 149.894531 148.710938 Z M 149.894531 148.710938 " fill-opacity="1" fill-rule="nonzero"/><path fill="#db202c" d="M 326.878906 142.792969 C 329.242188 144.589844 330.398438 146.644531 331.339844 149.449219 C 331.4375 151.429688 331.375 153.386719 331.339844 155.367188 C 328.640625 155.367188 325.941406 155.367188 323.160156 155.367188 C 322.914062 153.414062 322.671875 151.460938 322.417969 149.449219 C 320.945312 149.695312 319.472656 149.9375 317.957031 150.191406 C 317.613281 154.464844 318.167969 156.507812 320.929688 159.804688 C 321.878906 160.617188 322.84375 161.417969 323.8125 162.207031 C 327.910156 165.703125 330.886719 169.414062 331.71875 174.832031 C 331.84375 178.539062 331.667969 181.269531 330.132812 184.671875 C 327.242188 187.546875 325.050781 188.539062 320.976562 188.925781 C 317.117188 188.765625 314.03125 187.460938 311.03125 185.042969 C 307.816406 181.019531 308.15625 177.335938 308.289062 172.378906 C 310.988281 172.621094 313.6875 172.867188 316.46875 173.117188 C 316.636719 174.632812 316.808594 176.152344 316.976562 177.667969 C 317.078125 179.042969 317.078125 179.042969 317.957031 179.773438 C 319.195312 179.804688 320.433594 179.804688 321.671875 179.773438 C 322.664062 177.148438 322.386719 175.988281 321.441406 173.300781 C 319.980469 170.589844 318.125 168.898438 315.769531 166.921875 C 311.691406 163.441406 309.054688 159.839844 307.964844 154.53125 C 307.714844 150.652344 309.046875 147.378906 311.261719 144.273438 C 315.980469 140.542969 321.394531 140.976562 326.878906 142.792969 Z M 326.878906 142.792969 " fill-opacity="1" fill-rule="nonzero"/><path fill="#db202c" d="M 69.582031 144.132812 C 72.816406 147.648438 72.714844 150.820312 72.558594 155.367188 C 71.472656 155.511719 70.390625 155.648438 69.304688 155.78125 C 68.699219 155.859375 68.097656 155.9375 67.476562 156.015625 C 65.867188 156.105469 65.867188 156.105469 64.378906 155.367188 C 63.9375 153.40625 63.828125 151.453125 63.632812 149.449219 C 62.164062 149.695312 60.691406 149.9375 59.171875 150.191406 C 58.777344 154.539062 58.777344 154.539062 60.660156 158.371094 C 62.769531 160.570312 65.128906 162.515625 67.453125 164.488281 C 70.402344 167.109375 72.378906 169.472656 72.710938 173.476562 C 72.777344 177.601562 72.808594 180.722656 70.328125 184.210938 C 66.976562 187.292969 64.507812 188.027344 60.007812 188.09375 C 58.863281 188.121094 58.863281 188.121094 57.691406 188.152344 C 55.136719 187.875 53.792969 187.195312 51.738281 185.691406 C 48.839844 181.71875 49.332031 177.828125 49.503906 173.117188 C 52.203125 173.117188 54.90625 173.117188 57.6875 173.117188 C 57.929688 175.070312 58.175781 177.023438 58.429688 179.035156 C 59.660156 179.316406 60.902344 179.5625 62.148438 179.773438 C 63.207031 178.878906 63.207031 178.878906 63.125 176.261719 C 63.058594 173.042969 62.277344 171.707031 59.917969 169.417969 C 58.414062 168.097656 56.898438 166.792969 55.378906 165.496094 C 52.144531 162.625 49.867188 159.683594 49.3125 155.339844 C 49.09375 151.070312 49.9375 147.761719 52.480469 144.273438 C 57.632812 140.199219 64.160156 140.875 69.582031 144.132812 Z M 69.582031 144.132812 " fill-opacity="1" fill-rule="nonzero"/><path fill="#db202c" d="M 246.566406 142.054688 C 253.683594 142.054688 260.800781 142.054688 268.132812 142.054688 C 268.132812 144.496094 268.132812 146.9375 268.132812 149.449219 C 263.960938 149.449219 259.789062 149.449219 255.492188 149.449219 C 255.492188 152.867188 255.492188 156.285156 255.492188 159.804688 C 257.859375 159.78125 257.859375 159.78125 260.277344 159.757812 C 261.90625 159.742188 263.53125 159.75 265.15625 159.804688 C 265.902344 160.542969 265.902344 160.542969 265.996094 163.132812 C 265.902344 165.722656 265.902344 165.722656 265.15625 166.460938 C 261.933594 166.566406 258.71875 166.492188 255.492188 166.460938 C 255.492188 170.121094 255.492188 173.78125 255.492188 177.554688 C 259.664062 177.554688 263.835938 177.554688 268.132812 177.554688 C 268.132812 179.996094 268.132812 182.4375 268.132812 184.949219 C 265.234375 184.972656 262.339844 184.984375 259.441406 184.996094 C 258.621094 185.003906 257.800781 185.007812 256.957031 185.015625 C 256.164062 185.019531 255.371094 185.019531 254.550781 185.023438 C 253.824219 185.027344 253.097656 185.03125 252.34375 185.035156 C 250.285156 184.949219 250.285156 184.949219 246.566406 184.210938 C 246.566406 170.300781 246.566406 156.386719 246.566406 142.054688 Z M 246.566406 142.054688 " fill-opacity="1" fill-rule="nonzero"/><path fill="#db202c" d="M 221.285156 142.054688 C 228.644531 142.054688 236.007812 142.054688 243.59375 142.054688 C 243.59375 148.285156 243.339844 151.035156 240.664062 156.160156 C 240.367188 156.753906 240.070312 157.351562 239.765625 157.96875 C 238.824219 159.851562 237.863281 161.722656 236.898438 163.59375 C 236.253906 164.878906 235.609375 166.164062 234.964844 167.449219 C 233.394531 170.578125 231.804688 173.699219 230.207031 176.816406 C 231.5625 176.800781 231.5625 176.800781 232.945312 176.789062 C 234.125 176.78125 235.304688 176.773438 236.480469 176.769531 C 237.078125 176.761719 237.675781 176.757812 238.289062 176.75 C 239.808594 176.742188 241.328125 176.777344 242.847656 176.816406 C 243.59375 177.554688 243.59375 177.554688 243.664062 179.082031 C 243.65625 179.691406 243.648438 180.300781 243.640625 180.929688 C 243.632812 181.539062 243.625 182.152344 243.617188 182.78125 C 243.609375 183.253906 243.601562 183.722656 243.59375 184.210938 C 240.546875 184.230469 237.503906 184.242188 234.460938 184.25 C 233.425781 184.253906 232.390625 184.261719 231.351562 184.265625 C 229.867188 184.277344 228.378906 184.28125 226.890625 184.28125 C 225.996094 184.285156 225.097656 184.289062 224.175781 184.292969 C 222.027344 184.210938 222.027344 184.210938 220.539062 183.472656 C 220.207031 178.167969 221.039062 174.863281 223.46875 170.179688 C 223.765625 169.582031 224.0625 168.984375 224.367188 168.367188 C 225.3125 166.476562 226.269531 164.597656 227.234375 162.714844 C 227.878906 161.429688 228.523438 160.140625 229.167969 158.851562 C 230.738281 155.710938 232.328125 152.578125 233.925781 149.449219 C 229.753906 149.207031 225.582031 148.960938 221.285156 148.710938 C 221.285156 146.515625 221.285156 144.316406 221.285156 142.054688 Z M 221.285156 142.054688 " fill-opacity="1" fill-rule="nonzero"/><path fill="#db202c" d="M 165.511719 142.054688 C 168.457031 142.054688 171.402344 142.054688 174.433594 142.054688 C 174.75 143.058594 175.0625 144.066406 175.386719 145.101562 C 175.796875 146.414062 176.207031 147.722656 176.621094 149.035156 C 176.824219 149.699219 177.03125 150.363281 177.246094 151.046875 C 177.445312 151.679688 177.644531 152.308594 177.847656 152.960938 C 178.03125 153.546875 178.214844 154.128906 178.402344 154.734375 C 178.78125 156.097656 178.78125 156.097656 179.640625 156.847656 C 181.113281 151.964844 182.585938 147.082031 184.101562 142.054688 C 186.800781 142.054688 189.5 142.054688 192.28125 142.054688 C 191.871094 145.574219 191.152344 148.609375 189.867188 151.910156 C 185.878906 162.503906 182.902344 171.984375 183.359375 183.472656 C 180.414062 183.472656 177.46875 183.472656 174.433594 183.472656 C 174.476562 182.625 174.519531 181.777344 174.558594 180.90625 C 174.742188 168.492188 170.632812 157.878906 166.25 146.453125 C 165.511719 144.273438 165.511719 144.273438 165.511719 142.054688 Z M 165.511719 142.054688 " fill-opacity="1" fill-rule="nonzero"/><path fill="#db202c" d="M 10.835938 142.054688 C 13.535156 142.054688 16.234375 142.054688 19.015625 142.054688 C 19.070312 147.871094 19.113281 153.6875 19.140625 159.507812 C 19.148438 161.484375 19.164062 163.460938 19.183594 165.441406 C 19.210938 168.285156 19.226562 171.132812 19.234375 173.976562 C 19.246094 174.859375 19.257812 175.742188 19.269531 176.652344 C 19.269531 181.933594 18.816406 185.3125 15.484375 189.574219 C 11.957031 192.300781 8.515625 192.347656 4.144531 192.347656 C 4.144531 189.417969 4.144531 186.488281 4.144531 183.472656 C 4.988281 183.378906 5.832031 183.289062 6.699219 183.195312 C 7.574219 183.042969 8.449219 182.890625 9.351562 182.730469 C 10.28125 180.875 10.210938 179.5625 10.246094 177.484375 C 10.261719 176.703125 10.277344 175.917969 10.292969 175.109375 C 10.304688 174.257812 10.316406 173.410156 10.328125 172.535156 C 10.351562 171.230469 10.351562 171.230469 10.375 169.902344 C 10.425781 167.121094 10.46875 164.34375 10.511719 161.5625 C 10.542969 159.679688 10.578125 157.796875 10.609375 155.914062 C 10.6875 151.296875 10.765625 146.675781 10.835938 142.054688 Z M 10.835938 142.054688 " fill-opacity="1" fill-rule="nonzero"/><path fill="#db202c" d="M 362.574219 142.054688 C 365.273438 142.054688 367.972656 142.054688 370.753906 142.054688 C 370.753906 158.652344 370.753906 175.246094 370.753906 192.347656 C 368.054688 192.347656 365.355469 192.347656 362.574219 192.347656 C 362.574219 175.75 362.574219 159.152344 362.574219 142.054688 Z M 362.574219 142.054688 " fill-opacity="1" fill-rule="nonzero"/></svg>